<svg width="550" height="515" viewBox="0 0 550 515" fill="none" xmlns="http://www.w3.org/2000/svg">
<path fill-rule="evenodd" clip-rule="evenodd" d="M274.434 1.07618C324.888 3.30141 350.649 61.9876 393.813 88.2016C443.092 118.13 522.507 111.426 544.128 164.865C565.493 217.669 511.016 269.698 488.398 321.978C468.399 368.202 457.295 418.852 419.727 452.405C379.604 488.241 327.808 519.856 274.434 513.077C222.465 506.477 197.502 447.336 153.693 418.619C106.377 387.602 31.7325 390.452 8.61032 338.824C-14.4135 287.415 19.688 228.063 46.0583 178.287C68.9114 135.151 108.578 107.252 147.149 77.3228C187.202 46.2429 223.781 -1.15779 274.434 1.07618Z" stroke="#A94D23"/>
</svg>
