<svg width="22" height="22" viewBox="0 0 22 22" fill="none" xmlns="http://www.w3.org/2000/svg">
<path d="M13.314 5.52897C13.1211 5.72568 13.0131 5.99016 13.0131 6.26562C13.0131 6.54107 13.1211 6.80555 13.314 7.00227L14.9977 8.68604C15.1945 8.87886 15.4589 8.98686 15.7344 8.98686C16.0098 8.98686 16.2743 8.87886 16.471 8.68604L20.4384 4.71865C20.9676 5.88802 21.1278 7.19089 20.8977 8.45362C20.6677 9.71635 20.0582 10.879 19.1506 11.7866C18.243 12.6942 17.0804 13.3036 15.8177 13.5337C14.5549 13.7637 13.2521 13.6035 12.0827 13.0744L4.81092 20.3461C4.39227 20.7648 3.82445 21 3.23239 21C2.64032 21 2.0725 20.7648 1.65385 20.3461C1.2352 19.9275 1 19.3597 1 18.7676C1 18.1755 1.2352 17.6077 1.65385 17.1891L8.92564 9.9173C8.39647 8.74793 8.23625 7.44506 8.46633 6.18233C8.6964 4.91959 9.30584 3.75696 10.2134 2.84937C11.121 1.94179 12.2836 1.33235 13.5464 1.10227C14.8091 0.872199 16.112 1.03242 17.2813 1.56158L13.3245 5.51844L13.314 5.52897Z" stroke="white" stroke-width="2" stroke-linecap="round" stroke-linejoin="round"/>
</svg>
