<svg width="521" height="592" viewBox="0 0 521 592" fill="none" xmlns="http://www.w3.org/2000/svg">
<path d="M112.115 391.264L96.6962 399.099C22.9177 381.149 12.1788 215.517 2.93415 203.439C-6.31255 191.359 9.25081 192.65 9.25081 192.65C29.5742 198.47 47.3215 217.231 62.2936 240.947C62.4706 239.783 62.6696 238.641 62.8969 237.526C70.5126 200.25 80.2581 66.3086 80.0288 61.6143C79.7996 56.922 84.3908 59.5692 87.2163 68.2173C90.0418 76.8653 113.691 104.186 127.067 149.534C140.444 194.877 128.404 218.901 127.773 283.096C127.139 347.295 145.425 408.805 145.425 408.805C145.425 408.805 129.934 409.023 112.115 391.264" fill="#FFD049" fill-opacity="0.35"/>
<path d="M435.159 541.147C437.406 541.123 439.628 541.088 441.826 541.046C440.127 538.194 438.325 534.815 437.543 532.163L435.159 541.147V541.147ZM417.754 541.147C417.841 536.683 417.899 531.316 417.855 525.807H365.48V521.133C344.979 523.22 331.964 526.337 331.964 529.821C331.964 535.75 369.642 540.617 417.754 541.147V541.147ZM463.607 540.284C497.352 538.548 521 534.518 521 529.821C521 527.216 513.722 524.816 501.481 522.899V525.807H460.058C460.148 526.152 460.239 526.488 460.334 526.811C461.689 531.471 462.841 536.266 463.607 540.284Z" fill="#A6A6A6" fill-opacity="0.12"/>
<path d="M411.733 592.038C463.195 592.038 504.912 583.651 504.912 573.306C504.912 564.275 473.128 556.737 430.822 554.967C430.269 555.005 429.416 555.049 428.382 555.049C427.051 555.049 425.42 554.977 423.743 554.728C419.809 554.626 415.803 554.573 411.733 554.573C403.23 554.573 394.993 554.802 387.168 555.232C392.216 556.693 394.975 558.274 394.975 559.926C394.975 565.507 363.465 570.292 318.689 572.299C318.601 572.632 318.556 572.967 318.556 573.306C318.556 583.651 360.273 592.038 411.733 592.038Z" fill="#A6A6A6" fill-opacity="0.12"/>
<path d="M271.633 573.306C288.296 573.306 304.188 572.947 318.689 572.298C363.464 570.291 394.975 565.507 394.975 559.926C394.975 558.274 392.216 556.693 387.168 555.232C369.638 550.158 324.523 546.545 271.633 546.545C203.512 546.545 148.289 552.536 148.289 559.926C148.289 567.316 203.512 573.306 271.633 573.306" fill="#A6A6A6" fill-opacity="0.12"/>
<path d="M102.035 535.842C157.94 535.842 203.258 529.356 203.258 521.354C203.258 513.354 157.94 506.867 102.035 506.867C46.1329 506.867 0.814468 513.354 0.814468 521.354C0.814468 529.356 46.1329 535.842 102.035 535.842Z" fill="#A6A6A6" fill-opacity="0.12"/>
<path d="M85.9474 523.8H189.851V479.647H85.9474V523.8Z" fill="#D6C9AD"/>
<path d="M501.481 525.807H365.479V481.654H501.481V525.807Z" fill="#9D9C88"/>
<path d="M365.48 467.754H467.292L501.481 481.654H365.48V467.754Z" fill="#74746A"/>
<path d="M86.283 518.783H38.0185V479.318H86.283V518.783Z" fill="#9D9C88"/>
<path d="M53.7709 479.878H189.851V439.507H53.7709V479.878Z" fill="#E0D6BD"/>
<path d="M53.7709 402.708H189.851V361.003H53.7709V402.708Z" fill="#9D9C88"/>
<path d="M87.9603 350.081H189.851V361.003H53.7709L87.9603 350.081Z" fill="#74746A"/>
<path d="M68.5278 402.617H189.851V439.507H68.5278V402.617Z" fill="#D6C9AD"/>
<path d="M115.192 340.664C115.192 340.664 116.951 341.667 117.076 343.801C117.203 345.932 118.082 349.444 118.082 351.076C118.082 352.706 117.705 358.727 105.764 357.974C93.8245 357.221 96.7143 351.2 96.7143 349.822C96.7143 348.441 98.474 344.176 99.2281 342.922C99.9822 341.667 101.366 340.162 102.874 340.413C104.382 340.664 115.192 340.664 115.192 340.664Z" fill="white"/>
<path d="M184.948 346.56C184.948 346.56 186.205 346.811 187.21 347.815C188.216 348.818 188.594 351.953 187.588 352.455C186.583 352.957 180.674 356.595 172.506 355.215C164.335 353.836 164.586 353.836 161.948 354.087C159.307 354.337 153.023 354.462 151.641 352.832C150.258 351.201 150.76 344.929 151.39 343.801C152.017 342.671 151.766 342.045 153.274 342.045C154.782 342.045 184.948 346.56 184.948 346.56Z" fill="white"/>
<path d="M168.065 139.465C168.065 139.465 171.416 150.168 170.41 157.193C169.405 164.217 117.118 166.224 117.118 166.224C117.118 166.224 113.432 164.552 114.773 156.524C116.113 148.496 120.806 143.479 125.834 139.8C130.862 136.119 131.867 130.769 135.889 124.413C139.911 118.056 149.63 99.3254 166.724 105.681L168.065 139.465Z" fill="#2D2C33"/>
<path d="M166.221 328.371C166.221 328.371 164.713 337.904 166.221 339.66C167.73 341.417 160.44 342.922 160.44 342.922L156.669 338.406C156.669 338.406 157.674 330.127 157.674 328.622C157.674 327.117 166.221 328.371 166.221 328.371Z" fill="#EC7B52"/>
<path d="M166.975 336.526C166.975 336.526 172.128 339.536 175.774 341.292C179.418 343.048 182.434 344.678 184.445 344.804C186.456 344.929 185.953 347.187 185.829 347.815C185.702 348.441 182.309 350.448 177.155 349.695C172.003 348.943 171.122 348.441 169.865 346.936C168.608 345.431 167.981 344.303 167.603 345.681C167.227 347.062 167.227 348.317 165.467 348.441C163.707 348.567 158.177 349.194 156.166 347.688C154.155 346.183 153.526 345.055 153.526 345.055C153.526 345.055 152.898 335.897 157.045 336.526C157.045 336.526 157.423 339.41 161.318 339.661C165.216 339.911 165.089 336.901 165.592 336.526C166.095 336.148 166.346 336.148 166.975 336.526Z" fill="#009F76"/>
<path d="M114.186 330.756C114.186 330.756 112.678 337.529 113.054 338.783C113.432 340.038 105.639 339.787 105.639 339.787C105.639 339.787 106.518 330.629 106.896 329.626C107.272 328.622 114.186 330.756 114.186 330.756Z" fill="#EC7B52"/>
<path d="M110.164 337.529C110.164 337.529 114.186 337.278 115.065 338.282C115.946 339.285 115.819 343.801 115.694 345.557C115.568 347.313 117.327 349.444 115.694 351.201C114.059 352.957 111.043 354.087 109.535 353.458C108.026 352.832 107.399 351.076 105.136 351.829C102.874 352.581 103.125 353.585 101.239 352.957C99.3547 352.33 97.8464 350.073 98.4738 347.062C99.1033 344.052 101.868 340.79 102.496 339.285C103.125 337.78 104.131 336.399 110.164 337.529Z" fill="#009F76"/>
<path d="M165.719 216.984C165.719 216.984 177.533 245.333 178.036 266.908C178.539 288.483 170.997 324.608 170.746 326.615C170.495 328.622 163.205 332.134 154.406 328.873C154.406 328.873 148.876 310.058 148.625 299.27C148.373 288.483 151.39 276.942 149.882 272.176C148.373 267.409 144.854 249.347 143.849 250.099C142.843 250.852 137.313 279.953 135.553 285.472C133.793 290.991 124.744 327.117 120.722 330.378C116.7 333.64 114.186 332.887 114.186 332.887L106.393 330.629C106.393 330.629 102.874 331.382 101.366 322.35C99.8573 313.319 101.114 299.27 103.628 291.995C106.142 284.72 112.175 267.409 112.426 262.392C112.678 257.374 115.946 234.796 117.957 226.517C119.968 218.238 126.503 213.472 126.503 213.472L147.871 213.221L165.719 216.984Z" fill="#ED5D21"/>
<path d="M157.674 147.994C157.674 147.994 164.21 152.344 167.394 153.514C170.579 154.684 194.376 159.366 213.144 171.41C231.915 183.45 234.932 184.453 234.932 185.794C234.932 187.13 235.099 196.162 235.099 196.162C235.099 196.162 214.989 197.834 206.442 195.993C197.895 194.155 174.432 185.625 174.432 185.625C174.432 185.625 175.774 206.867 173.26 212.386C170.746 217.903 158.177 222.086 147.117 221.082C136.056 220.079 126.504 217.903 123.151 211.549C119.801 205.193 120.806 200.009 120.973 197.667C121.14 195.327 137.564 148.663 137.564 148.663C137.564 148.663 141.419 145.987 147.955 146.154L157.674 147.994Z" fill="#D9CDB0"/>
<path d="M166.175 218.112C169.572 216.613 172.14 214.678 173.192 212.533C172.14 214.678 169.572 216.613 166.175 218.112Z" fill="#D5D3D1"/>
<path d="M150.505 221.231C156.124 221.229 161.829 220.029 166.175 218.112C161.829 220.029 156.124 221.227 150.505 221.231Z" fill="#2D2C33"/>
<path d="M150.487 221.231C150.493 221.231 150.499 221.231 150.505 221.231C156.124 221.227 161.829 220.029 166.175 218.112C169.572 216.613 172.14 214.678 173.192 212.533C173.192 212.531 173.194 212.527 173.194 212.525C173.218 212.479 173.238 212.432 173.26 212.386C174.475 209.717 174.79 203.375 174.79 197.535C174.79 191.293 174.432 185.625 174.432 185.625L167.478 170.071C167.478 170.071 165.216 168.566 163.959 166.81C163.521 166.198 162.929 165.981 162.27 165.981C161.041 165.981 159.575 166.734 158.429 167.061C156.669 167.562 157.675 175.339 149.882 177.096C149.033 177.286 148.211 177.375 147.418 177.375C140.943 177.375 136.505 171.554 136.056 169.319C136.036 169.22 135.996 169.174 135.935 169.174C134.437 169.174 120.973 197.667 120.973 197.667C120.907 198.608 120.704 200.011 120.704 201.765C120.702 204.37 121.148 207.75 123.151 211.549C123.718 212.623 124.462 213.578 125.361 214.427C129.776 218.606 137.926 220.248 147.117 221.082C147.161 221.086 147.205 221.09 147.249 221.092C148.317 221.187 149.399 221.231 150.483 221.231C150.485 221.231 150.485 221.231 150.487 221.231" fill="#B9B39D"/>
<path d="M159.686 142.309C159.686 142.309 157.508 151.005 157.508 153.012C157.508 153.012 150.636 154.852 146.278 150.168C146.278 150.168 151.474 138.963 151.641 137.96C151.808 136.956 159.686 142.309 159.686 142.309Z" fill="#C96E4D"/>
<path d="M137.062 169.403C137.062 169.403 134.381 174.587 138.57 178.767C142.759 182.95 152.311 186.127 154.491 188.301C156.669 190.476 157.508 196.999 155.83 201.681C154.155 206.363 144.939 210.377 133.04 207.702C121.14 205.027 109.746 192.148 107.902 186.964C106.058 181.778 110.08 166.894 116.951 160.372C123.823 153.849 120.807 148.998 140.078 147.158C140.078 147.158 141.586 156.524 141.25 159.199C140.917 161.877 137.062 169.403 137.062 169.403Z" fill="#D9CDB0"/>
<path d="M173.762 127.088C173.762 127.088 172.087 131.772 171.918 134.281C171.751 136.789 169.238 140.133 166.388 141.472C163.541 142.81 161.361 143.814 159.518 143.645C157.674 143.479 153.15 142.14 152.144 141.137C151.139 140.133 147.117 135.116 148.289 128.762C148.289 128.762 143.471 126.712 143.973 123.535C144.476 120.356 145.817 120.314 147.493 120.649C149.17 120.985 149.966 122.907 149.966 122.907L155.496 114.378L164.377 111.534L169.907 113.374L173.762 127.088Z" fill="#EC7B52"/>
<path d="M166.724 105.681C166.724 105.681 172.421 104.343 175.774 110.364C179.126 116.385 181.137 120.232 179.46 123.074C177.785 125.918 176.276 128.928 173.427 128.091C170.579 127.256 167.227 122.07 166.891 117.053C166.891 117.053 160.021 123.242 154.994 123.576C149.966 123.911 149.966 122.907 149.128 122.406C148.289 121.904 146.111 117.388 146.111 117.388C146.111 117.388 152.983 107.52 153.486 107.52C153.988 107.52 166.724 105.681 166.724 105.681Z" fill="#2D2C33"/>
<path d="M165.216 127.299L164.21 134.323C164.21 134.323 162.702 135.953 160.691 133.695L163.581 126.797C163.581 126.797 164.713 125.918 165.216 127.299Z" fill="#AB5E45"/>
<path d="M178.455 563.271H370.843V509.988H178.455V563.271Z" fill="#F89F43"/>
<path d="M198.567 495.4H350.731L370.843 509.988H178.455L198.567 495.4Z" fill="#BD7C38"/>
<path d="M178.455 456.894H370.843V403.613H178.455V456.894Z" fill="#2FB09E"/>
<path d="M198.567 392.679H350.731L370.843 403.613H178.455L198.567 392.679Z" fill="#2D857B"/>
<path d="M178.455 355.837H370.843V306.971H178.455V355.837Z" fill="#5459A2"/>
<path d="M198.567 296.968H350.731L370.843 306.971H178.455L198.567 296.968" fill="#46457D"/>
<path d="M178.455 262.524H370.843V213.781H178.455V262.524Z" fill="#FF6823"/>
<path d="M198.567 203.776H350.731L370.843 213.781H178.455L198.567 203.776Z" fill="#B73732"/>
<path d="M180.465 168.915H372.854V119.447H180.465V168.915Z" fill="#F89F43"/>
<path d="M200.578 109.444H352.742L372.854 119.447H180.465L200.578 109.444Z" fill="#BD7C38"/>
<path d="M303.554 509.988H374.865V456.707H303.554V509.988Z" fill="#5459A2"/>
<path d="M303.554 509.988L288.508 495.4V456.707H303.554V509.988Z" fill="#46457D"/>
<path d="M245.743 509.988H174.432V456.707H245.743V509.988Z" fill="#FF6823"/>
<path d="M245.743 509.988L260.79 495.4V456.707H245.743V509.988Z" fill="#B73732"/>
<path d="M420.159 403.613H359.866V355.717H420.159V403.613Z" fill="#FF6623"/>
<path d="M359.867 403.613L344.82 392.697V355.716H359.867V403.613Z" fill="#B73732"/>
<path d="M245.743 403.613H174.432V355.716H245.743V403.613Z" fill="#F89F43"/>
<path d="M245.743 403.613L260.79 392.697V355.716H245.743V403.613Z" fill="#BD7C38"/>
<path d="M303.554 307.272H374.865V262.225H303.554V307.272Z" fill="#F89F43"/>
<path d="M303.554 307.272L288.508 296.585V262.225H303.554V307.272Z" fill="#BD7C38"/>
<path d="M245.743 307.272H174.432V262.225H245.743V307.272Z" fill="#2FB09E"/>
<path d="M245.743 307.272L260.79 296.585V262.225H245.743V307.272Z" fill="#2D857B"/>
<path d="M303.554 213.781H374.865V168.732H303.554V213.781Z" fill="#2FB09E"/>
<path d="M303.554 213.781L288.508 203.094V168.732H303.554V213.781Z" fill="#2D857B"/>
<path d="M231.666 213.781H160.355V168.732H231.666V213.781Z" fill="#5459A2"/>
<path d="M231.666 213.781L246.713 203.094V168.732H231.666V213.781Z" fill="#46457D"/>
<path d="M246.316 179.901C246.316 179.901 251.664 181.043 251.855 186.761C252.046 192.481 250.9 193.623 248.798 194.958C246.698 196.29 240.587 196.864 239.825 196.483C239.06 196.102 236.004 190.193 237.532 187.524C239.06 184.857 243.071 183.903 243.071 183.903C243.071 183.903 239.825 183.331 240.014 181.615C240.205 179.901 240.587 179.329 241.733 179.52C242.879 179.711 245.552 179.901 246.316 179.901" fill="#EC7B52"/>
<path d="M154.825 195.158C154.825 195.158 159.35 195.158 161.194 195.158C163.038 195.158 167.896 190.643 169.071 190.476C170.243 190.308 172.087 189.974 171.249 191.311C170.41 192.65 166.891 195.66 166.891 195.66C166.891 195.66 172.087 195.494 174.265 195.158C176.443 194.823 179.293 193.653 180.298 194.657C181.304 195.66 183.148 198.335 181.471 200.009C179.795 201.681 171.751 205.027 167.729 205.193C163.707 205.36 154.155 202.183 153.485 200.511C152.814 198.837 153.317 194.992 154.825 195.158Z" fill="#EC7B52"/>
<path d="M332.885 41.1229C332.885 41.1229 330.874 41.1229 336.656 49.6526C342.437 58.1822 335.147 80.5098 335.147 80.5098L288.894 80.0081L295.528 54.945L299.452 40.1195C299.452 40.1195 308.25 38.8651 313.78 39.116C319.311 39.3668 332.885 41.1229 332.885 41.1229Z" fill="#D9CDB0"/>
<path d="M335.147 80.5098C335.147 80.5098 338.882 69.0701 338.886 59.4386C338.886 55.6153 338.299 52.077 336.656 49.6526C336.656 49.6526 336.656 64.454 330.623 67.2136C327.526 68.6305 323.304 69.2527 318.84 69.2527C314.607 69.2527 310.154 68.6928 306.239 67.7154C298.195 65.7084 295.528 54.945 295.528 54.945L288.894 80.0081L335.147 80.5098Z" fill="#B9B39D"/>
<path d="M325.585 37.7614L325.446 42.5159C325.446 42.5159 320.541 48.2478 309.754 41.677L310.734 35.1041L325.585 37.7614" fill="#C96E4D"/>
<path d="M329.649 13.4347L328.947 27.6963L324.044 34.2651L310.876 33.2877L307.232 27.6963L306.812 19.1667L308.073 10.7775H324.463L329.649 13.4347" fill="#EC7B52"/>
<path d="M308.632 26.5766C309.195 28.9549 311.856 31.4696 319.001 32.0296C326.144 32.5895 327.127 28.6739 327.968 27.556C328.808 26.4381 328.666 14.8318 328.666 14.8318L328.809 12.875C328.809 12.875 326.707 16.6501 318.721 16.0902C310.735 15.5323 309.754 12.1766 309.754 12.1766C309.754 12.1766 308.073 19.0264 308.073 20.2847C308.073 21.5431 308.073 24.2004 308.632 26.5766V26.5766ZM304.572 11.8976C304.572 8.40146 305.971 4.76483 309.052 2.66754C312.137 0.570256 314.798 0.431796 316.338 0.431796C317.881 0.431796 322.363 -0.967077 326.564 1.2707C330.769 3.50646 333.571 8.54197 333.43 10.9182C333.291 13.2945 331.889 13.0155 331.889 13.0155C331.889 13.0155 331.19 23.5019 331.33 26.7171C331.469 29.9323 333.15 41.1171 319.701 41.1171C306.253 41.1171 304.572 32.5895 304.29 26.5766C304.011 20.5637 304.572 15.3917 304.572 11.8976" fill="#2D2C33"/>
<path d="M330.628 18.7472C330.628 18.7472 333.15 14.5527 335.672 15.2511C338.194 15.9515 338.614 19.1667 336.792 20.704C334.972 22.2414 330.489 22.5223 330.489 22.5223L330.628 18.7472" fill="#EC7B52"/>
<path d="M305.413 17.6273L305.551 22.5223C305.551 22.5223 298.547 20.425 298.967 16.9289C299.387 13.4347 303.311 14.6931 305.413 17.6273Z" fill="#EC7B52"/>
<path d="M320.262 22.3819L320.402 28.2543C320.402 28.2543 319.001 30.0726 317.599 28.2543L318.301 22.2414C318.301 22.2414 319.562 21.1236 320.262 22.3819Z" fill="#AB5E45"/>
<path d="M332.382 41.123C332.382 41.123 353.247 42.3774 359.028 62.4471C364.81 82.5169 365.061 86.28 368.078 89.5413C371.094 92.8026 370.843 100.831 364.056 102.587C357.269 104.343 353.247 97.3183 353.247 97.3183L338.667 68.4681C338.667 68.4681 332.382 45.3879 332.382 41.123Z" fill="#D9CDB0"/>
<path d="M281.433 119.447H352.742V74.3987H281.433V119.447Z" fill="#FF6220"/>
<path d="M281.433 119.447L266.387 108.76V74.3987H281.433V119.447Z" fill="#B73732"/>
<path d="M361.291 95.8131C361.291 95.8131 365.061 100.078 361.542 106.851C358.023 113.625 342.689 108.357 341.683 106.601C340.678 104.845 338.918 100.831 340.929 99.3253C342.94 97.8201 347.213 97.8201 349.476 97.5692C351.738 97.3183 346.031 95.1749 344.7 94.3079C343.254 93.3666 343.191 91.2974 345.705 91.7991C348.219 92.3009 355.006 92.5517 361.291 95.8131Z" fill="#D5653D"/>
<path d="M301.127 39.7845C301.127 39.7845 283.363 38.1127 264.259 61.8612C245.154 85.6118 275.989 104.343 279.677 105.681C283.363 107.018 288.727 107.688 289.732 106.685C289.732 106.685 291.072 98.6571 296.099 99.3254C296.099 99.3254 294.76 87.117 288.894 80.0083C283.027 72.8996 291.743 65.8752 295.429 62.8647C299.116 59.8543 301.127 39.7845 301.127 39.7845Z" fill="#D9CDB0"/>
<path d="M294.927 97.8201C294.927 97.8201 295.681 100.58 297.441 100.58C299.2 100.58 305.987 99.5762 307.496 100.329C309.004 101.081 309.758 102.587 308.25 102.838C306.742 103.088 301.211 103.59 301.211 103.59C301.211 103.59 306.49 106.099 310.009 106.851C313.529 107.604 315.037 108.106 315.037 111.869C315.037 115.632 313.026 116.886 305.987 117.388C298.949 117.89 292.413 114.127 291.156 111.869C289.899 109.611 289.732 106.685 289.732 106.685L287.888 100.58L291.91 96.8166L294.927 97.8201Z" fill="#D5653D"/>
<path d="M472.902 561.933C472.902 561.933 475.668 565.194 477.176 567.201C478.684 569.208 472.651 573.222 470.389 573.724C468.126 574.226 466.367 573.975 466.367 573.975C466.367 573.975 466.367 576.233 464.356 577.487C462.345 578.741 446.005 585.766 442.737 585.013C439.469 584.26 440.223 578.49 440.223 578.49L451.032 571.968L459.579 565.194L472.902 561.933Z" fill="white"/>
<path d="M431.425 571.466C431.425 571.466 434.19 573.975 434.442 575.731C434.693 577.487 435.447 579.745 433.185 580.999C430.922 582.253 424.889 583.257 422.376 582.003C419.862 580.748 420.113 577.989 418.605 579.494C417.097 580.999 418.102 582.755 415.588 582.755C413.075 582.755 397.741 584.511 394.473 582.003C391.205 579.494 391.959 575.48 392.964 574.476C393.97 573.473 411.818 572.72 411.818 572.72L421.873 569.459L431.425 571.466Z" fill="white"/>
<path d="M372.351 382.309C372.351 382.309 370.089 383.563 368.58 379.047C367.072 374.532 365.313 370.518 363.553 370.518C361.793 370.518 363.553 378.546 363.553 378.546C363.553 378.546 360.285 379.298 359.28 378.295C358.274 377.291 356.766 374.532 355.258 374.782C353.749 375.033 351.738 378.796 353.247 384.817C354.755 390.838 359.028 391.089 362.045 391.842C365.061 392.594 372.602 391.842 372.602 391.842L372.351 382.309Z" fill="#EC7B52"/>
<path d="M397.992 325.778C397.992 325.778 393.3 322.601 394.305 319.089C395.311 315.577 397.322 317.082 398.159 318.086C398.997 319.089 399.667 320.594 399.667 320.594L397.992 325.778Z" fill="#EC7B52"/>
<path d="M421.285 335.646C421.285 335.646 427.654 334.308 428.324 329.961C428.996 325.612 428.996 313.905 427.654 311.563C426.313 309.221 424.471 308.386 424.471 308.386L413.241 333.473L421.285 335.646Z" fill="#2D2C33"/>
<path d="M463.014 548.552C463.014 548.552 465.697 557.919 466.702 558.254C467.708 558.587 457.653 562.601 457.653 562.601C457.653 562.601 454.97 553.237 453.965 550.895C452.959 548.552 463.014 548.552 463.014 548.552Z" fill="#EC7B52"/>
<path d="M465.697 553.905C465.697 553.905 471.394 555.577 472.4 558.587C473.405 561.598 475.416 563.604 474.075 565.611C472.736 567.618 470.389 569.292 468.042 569.292C465.697 569.292 464.691 565.278 463.014 568.289C461.339 571.299 463.686 572.303 461.003 573.975C458.323 575.646 450.278 578.992 445.587 579.327C440.893 579.66 439.554 580.33 438.882 579.327C438.212 578.323 438.548 575.313 440.559 574.643C442.57 573.975 449.273 569.625 451.284 564.943C453.295 560.261 455.642 557.584 455.642 557.584C455.642 557.584 457.317 559.926 460.334 558.922C463.35 557.919 465.697 553.905 465.697 553.905Z" fill="#1DB38C"/>
<path d="M429.163 552.149C429.163 552.149 428.408 560.929 428.66 561.682C428.911 562.435 422.878 563.94 420.113 561.431L421.873 549.64L429.163 552.149Z" fill="#EC7B52"/>
<path d="M430.42 559.675C430.42 559.675 432.431 564.191 432.682 568.205C432.933 572.219 432.682 575.48 432.682 575.48C432.682 575.48 424.638 577.487 422.124 576.233C419.61 574.978 420.113 573.473 418.856 573.473C417.599 573.473 418.605 575.731 416.091 576.233C413.577 576.734 401.763 577.487 396.484 577.236C391.205 576.985 393.216 570.212 395.227 570.212C397.238 570.212 402.265 570.964 407.293 567.703C412.32 564.442 416.594 559.173 420.616 558.421C420.616 558.421 424.387 561.18 428.66 559.173L430.42 559.675Z" fill="#1DB38C"/>
<path d="M462.68 408.064C462.68 408.064 469.383 420.776 468.042 435.829C466.702 450.881 452.625 480.65 451.954 482.657C451.284 484.664 455.306 489.347 455.976 492.024C456.647 494.699 457.317 516.441 460.334 526.811C463.35 537.181 465.361 548.219 464.356 549.891C464.356 549.891 459.998 553.905 454.3 553.905C454.3 553.905 449.943 553.236 445.587 546.88C445.587 546.88 439.218 537.849 437.542 532.163L431.509 554.908C431.509 554.908 422.46 555.912 417.432 552.566C417.432 552.566 418.772 520.121 416.761 503.062C414.749 486.003 415.755 481.989 415.755 472.622C415.755 463.256 425.14 420.776 427.487 415.424C429.832 410.071 462.68 408.064 462.68 408.064" fill="#FF6623"/>
<path d="M433.185 548.219L437.543 532.163C437.543 532.163 428.157 506.406 425.477 496.371C422.794 486.336 430.838 429.808 430.838 429.808C431.007 428.971 430.671 428.553 430.211 428.553C429.75 428.553 429.163 428.971 428.827 429.808C428.157 431.48 421.788 469.277 420.449 480.315C419.108 491.354 420.783 515.772 423.799 524.135C426.816 532.497 433.185 548.219 433.185 548.219Z" fill="#E05F28"/>
<path d="M425.643 343.675C425.643 343.675 422.124 335.396 422.124 332.134L412.069 340.915C412.069 340.915 415.84 346.936 416.342 348.19C416.845 349.445 425.643 343.675 425.643 343.675Z" fill="#C96E4D"/>
<path d="M422.963 328.957C422.963 328.957 422.627 335.311 418.772 339.159C414.919 343.006 409.555 344.01 407.041 344.01C404.528 344.01 401.847 344.176 398.997 341.834C396.148 339.494 396.148 335.813 396.484 332.971C396.819 330.127 397.825 327.619 397.992 325.778L399.667 317.249L412.405 313.905L419.274 314.072L420.783 322.768C420.783 322.768 426.482 316.916 429.665 321.096C432.849 325.277 422.963 328.957 422.963 328.957Z" fill="#EC7B52"/>
<path d="M421.788 320.093C421.788 320.093 419.777 326.113 419.777 327.452C419.777 328.789 420.28 329.626 418.269 329.459C416.258 329.29 415.924 327.284 416.091 324.775C416.258 322.266 416.091 316.747 416.091 316.747C416.091 316.747 409.891 322.768 407.377 322.768C404.863 322.768 404.694 319.926 404.694 319.926C404.694 319.926 403.858 322.768 401.008 321.933C398.159 321.096 396.316 319.926 398.494 314.74C400.672 309.556 402.683 304.538 409.388 303.87C416.091 303.2 424.974 305.542 427.152 310.559C429.33 315.577 421.788 320.093 421.788 320.093Z" fill="#2D2C33"/>
<path d="M404.276 327.416L403.182 332.745C403.182 332.745 401.266 334.248 400.17 332.335L401.949 326.87C401.949 326.87 403.045 325.776 404.276 327.416" fill="#AB5E45"/>
<path d="M424.135 342.169C424.135 342.169 435.698 339.661 442.57 345.681C449.44 351.702 455.139 372.274 457.15 376.121C459.161 379.967 464.858 394.184 467.372 397.361C469.886 400.538 469.216 404.721 465.697 407.731C462.178 410.742 446.423 418.769 434.023 417.096C421.621 415.424 420.208 404.512 420.159 403.613C420.113 402.714 420.113 395.689 420.113 395.689C420.113 395.689 414.583 400.873 400.841 399.201C387.098 397.528 372.518 397.026 371.179 391.34C369.837 385.654 369.502 380.97 373.357 379.633C377.212 378.295 401.175 369.097 406.203 368.26C411.23 367.423 414.919 369.097 414.919 369.097C414.919 369.097 411.23 367.423 410.896 366.755C410.561 366.086 412.405 366.755 411.733 365.249C411.063 363.744 410.728 360.065 411.23 355.215C411.733 350.364 416.258 346.35 418.772 345.013C421.285 343.674 423.632 342.003 424.135 342.169" fill="#D9CDB0"/>
<path d="M422.18 409.716C422.192 409.698 422.205 409.686 422.219 409.668C421.593 408.6 421.153 407.558 420.845 406.645C421.163 407.833 421.595 408.903 422.18 409.716Z" fill="#D5D3D1"/>
<path d="M422.46 410.071C422.46 410.071 422.46 410.071 422.462 410.069C422.377 409.935 422.296 409.803 422.217 409.668C422.203 409.686 422.191 409.698 422.178 409.716C422.268 409.841 422.363 409.959 422.46 410.071" fill="#CBC4B5"/>
<path d="M420.133 402.117C420.113 399.779 420.113 395.689 420.113 395.689C420.113 395.689 419.876 398.724 420.133 402.117Z" fill="#D43E38"/>
<path d="M422.462 410.069C422.534 410.019 424.696 408.488 427.99 404.05C431.341 399.535 442.401 392.008 443.24 382.309C444.078 372.609 438.548 359.73 438.548 359.73C438.548 359.73 441.565 369.932 436.368 380.803C431.174 391.675 420.113 395.689 420.113 395.689C420.113 395.689 420.113 399.779 420.133 402.118C420.25 403.635 420.465 405.224 420.845 406.645C421.153 407.558 421.593 408.6 422.219 409.668C422.297 409.802 422.378 409.935 422.462 410.069Z" fill="#B9B39D"/>
</svg>
