<svg width="84" height="84" viewBox="0 0 84 84" fill="none" xmlns="http://www.w3.org/2000/svg">
<path fill-rule="evenodd" clip-rule="evenodd" d="M29.5449 5.11371C36.3285 -1.69019 47.3433 -1.70664 54.1472 5.07693L78.6886 29.5449C85.4921 36.3285 85.509 47.3433 78.7254 54.1472L54.257 78.6886C47.4736 85.4921 36.4588 85.509 29.6549 78.7254L5.11371 54.257C-1.69019 47.4736 -1.70664 36.4588 5.07693 29.6549L29.5449 5.11371ZM48.6097 21.3821C48.6097 17.8613 45.7555 15.0071 42.2348 15.0071C38.714 15.0071 35.8598 17.8613 35.8598 21.3821V41.3854C35.8598 44.1851 34.0822 46.6094 31.9177 48.3852C28.3368 51.323 26.0522 55.783 26.0522 60.7762C26.0522 69.6231 33.2242 76.7949 42.0713 76.7949C50.9184 76.7949 58.0902 69.6231 58.0902 60.7762C58.0902 55.8709 55.8858 51.4806 52.413 48.5421C50.319 46.7701 48.6097 44.3819 48.6097 41.6387V21.3821ZM54.7138 55.0066C53.844 50.2146 48.6097 52.417 48.6097 57.2865C48.6097 62.1565 53.844 64.3584 54.7138 59.5669C54.848 58.8278 54.9181 58.0654 54.9181 57.2865C54.9181 56.5081 54.848 55.7457 54.7138 55.0066ZM30.3225 59.2215C31.0086 63.7048 35.8598 61.8225 35.8598 57.2865C35.8598 52.751 31.0085 50.8687 30.3225 55.352C30.226 55.9828 30.1759 56.6289 30.1759 57.2865C30.1759 57.9446 30.226 58.5908 30.3225 59.2215ZM42.4226 3.77292C40.1665 3.77292 38.3375 5.6019 38.3375 7.85808C38.3375 10.1142 40.1665 11.9433 42.4226 11.9433C44.6788 11.9433 46.5078 10.1142 46.5078 7.85808C46.5078 5.6019 44.6788 3.77292 42.4226 3.77292Z" fill="#FF6823"/>
</svg>
